<svg version="1.1" id="Layer_1" xmlns="http://www.w3.org/2000/svg" xmlns:xlink="http://www.w3.org/1999/xlink" x="0px" y="0px"
	 viewBox="0 0 456.13 634.31" style="enable-background:new 0 0 456.13 634.31;" xml:space="preserve">
<style type="text/css">
	.st0{fill:#1A1A1A;}
	.st1{fill:url(#SVGID_1_);}
	.st2{fill:url(#SVGID_00000055670758438040526810000017528978921464432557_);}
	.st3{fill:url(#SVGID_00000045612674875132835520000002865156425500799147_);}
	.st4{fill:#FFFFFF;}
	.st5{fill:#C5C5C5;}
	.st6{fill:url(#SVGID_00000164482268913325366050000012855950092489737355_);}
</style>
<g>
	<path class="st5" d="M405.44,262.9c-32.21-39.78-77.29-67.87-126.95-79.07c-12.96-2.92-22.36-14.79-22.36-28.22
		c0-9.57,4.71-18.51,12.6-23.9c20.34-13.89,32.09-36.88,31.45-61.49c-0.96-37-30.62-67.77-67.51-70.07
		c-20.15-1.26-39.33,5.64-53.99,19.42c-14.46,13.58-22.75,32.75-22.75,52.57c0,23.76,11.71,45.99,31.31,59.46
		c7.99,5.49,12.76,14.47,12.76,24.01c0,13.63-9.28,25.25-22.56,28.26C70.39,208.13-4.16,305.53,0.18,415.47
		c4.57,115.84,106.4,216.02,222.35,218.77c1.87,0.04,3.72,0.07,5.58,0.07c59.93,0,116.31-22.92,159.28-64.89
		c44.32-43.29,68.73-101.24,68.73-163.18C456.13,354.18,438.13,303.28,405.44,262.9z M181.37,201.15
		c21.41-4.85,36.36-23.58,36.36-45.54c0-15.38-7.64-29.82-20.45-38.61c-14.8-10.17-23.63-26.94-23.63-44.86
		c0-15.18,6.09-29.26,17.16-39.66c10.2-9.59,23.3-14.75,37.22-14.75c1.17,0,2.35,0.04,3.52,0.11c27.81,1.73,50.17,24.94,50.9,52.84
		c0.48,18.57-8.39,35.92-23.73,46.4c-12.73,8.69-20.32,23.1-20.32,38.53c0,21.99,14.88,40.7,36.18,45.51
		c96.46,21.77,163.82,106.12,163.82,205.13c0,39.82-10.95,77.84-31.42,110.75H265.2c-4.01-16.79-19.13-29.32-37.13-29.32
		c-18,0-33.13,12.53-37.14,29.32H51.08c-19.62-30.3-31.73-65.4-33.19-102.22C13.88,313.37,82.64,223.53,181.37,201.15z
		 M248.53,525.85c0,11.28-9.18,20.46-20.46,20.46c-11.28,0-20.46-9.18-20.46-20.46c0-11.28,9.18-20.46,20.46-20.46
		C239.35,505.39,248.53,514.57,248.53,525.85z M375.02,556.74c-40.86,39.91-94.94,61.14-152.06,59.79
		c-62.65-1.49-120.81-33.82-159.1-81.81h127.08c4.01,16.79,19.13,29.32,37.14,29.32c18,0,33.13-12.53,37.13-29.32h129.45
		C388.68,542.43,382.13,549.79,375.02,556.74z"/>
	<path class="st5" d="M198.87,413.65l-51.52-43.68l51.52-43.68l-36.29-42.8l-102,86.48l102,86.48L198.87,413.65z M87.99,369.98
		l72.54-61.5l13.37,15.77l-53.94,45.73l53.94,45.73l-13.37,15.77L87.99,369.98z"/>
	<path class="st5" d="M293.55,456.46l102-86.48l-102-86.48l-36.29,42.8l51.52,43.68l-51.52,43.68L293.55,456.46z M282.24,324.24
		l13.37-15.77l72.54,61.5l-72.54,61.5l-13.37-15.77l53.94-45.73L282.24,324.24z"/>
</g>
</svg>
